<?xml version="1.0" encoding="UTF-8"?>
<svg version="1.1" xmlns="http://www.w3.org/2000/svg" width="512" height="512">
<path d="M0 0 C6.29671422 3.64546613 10.25669741 9.1292571 12.5 16 C12.87109375 19.19921875 12.87109375 19.19921875 12.9375 22.6875 C12.97746094 23.82574219 13.01742188 24.96398437 13.05859375 26.13671875 C11.52941941 36.71261681 4.64582905 43.55879495 -2.7265625 50.75 C-3.72216556 51.73879647 -4.71672532 52.72864441 -5.71029663 53.71948242 C-8.30532338 56.30121439 -10.91541538 58.86717701 -13.52874756 61.43035889 C-15.66383393 63.52985096 -17.78755013 65.64064533 -19.91085243 67.75204468 C-22.44970878 70.27611989 -24.99372627 72.79496128 -27.5390625 75.3125 C-28.02177235 75.79029907 -28.50448219 76.26809814 -29.00181961 76.76037598 C-30.36773753 78.10999603 -31.73773316 79.45548536 -33.10791016 80.80078125 C-33.88558746 81.56559814 -34.66326477 82.33041504 -35.46450806 83.1184082 C-38.26139231 85.70382471 -39.74872814 86.9784279 -43.62890625 87.08984375 C-49.47183604 88.46361029 -52.42065105 92.27717272 -56.4375 96.5625 C-57.21673828 97.36880859 -57.99597656 98.17511719 -58.79882812 99.00585938 C-60.71350841 100.99101869 -62.61276347 102.98879139 -64.5 105 C-63.09717843 108.2052508 -61.44688971 110.25005645 -58.91015625 112.64453125 C-57.85731445 113.66063477 -57.85731445 113.66063477 -56.78320312 114.69726562 C-55.31062894 116.09990225 -53.83409723 117.49839651 -52.35351562 118.89257812 C-47.20131294 123.88421721 -44.1801709 127.70925524 -43.03125 134.95703125 C-42.88561801 148.2641541 -50.27197172 156.85305492 -58.00195312 166.98706055 C-59.38929393 168.85124323 -60.74440536 170.73394208 -62.09362793 172.62580872 C-62.5441729 173.25733258 -62.99471786 173.88885645 -63.45891571 174.5395174 C-63.80247353 175.02147666 -64.14603134 175.50343592 -64.5 176 C-63.42560165 176.00364563 -62.35120331 176.00729126 -61.24424744 176.01104736 C-51.10682406 176.04802823 -40.96970359 176.10583484 -30.83251095 176.18390274 C-25.62115681 176.22337025 -20.40997146 176.25556238 -15.19848633 176.27099609 C-10.16675903 176.28616733 -5.1354958 176.32062151 -0.1039753 176.36830902 C1.81325682 176.38311794 3.73055519 176.39104073 5.64784431 176.39188385 C8.33872773 176.39425673 11.02833201 176.42136173 13.71899414 176.45410156 C14.50734146 176.4490712 15.29568878 176.44404083 16.10792542 176.43885803 C21.67934104 176.54337314 24.96982454 177.68729043 29.5 181 C34.15559934 186.05724292 34.06838023 190.6553885 34.00170898 197.18041992 C34.00711197 198.19084854 34.01251495 199.20127716 34.01808167 200.24232483 C34.03055854 203.57200679 34.01408769 206.90082259 33.99609375 210.23046875 C33.99624873 212.54641261 33.99773745 214.86235674 34.00050354 217.17829895 C34.00188695 222.02612811 33.9893359 226.87366119 33.96655273 231.72143555 C33.93812101 237.94268501 33.94091924 244.16344433 33.95364285 250.38473034 C33.9605877 255.16388659 33.95282516 259.94292898 33.94038582 264.72207069 C33.93586306 267.01665117 33.93554168 269.31124382 33.93945122 271.60582542 C33.94235289 274.80672793 33.92590771 278.00694736 33.90405273 281.20776367 C33.90855438 282.16002838 33.91305603 283.11229309 33.91769409 284.09341431 C33.90778946 284.96393936 33.89788483 285.83446442 33.88768005 286.73136902 C33.88525016 287.48774249 33.88282026 288.24411596 33.88031673 289.02340984 C33.3952132 291.54460018 32.50041765 292.43732034 30.5 294 C28.34375 294.3984375 28.34375 294.3984375 26 294.375 C25.2265625 294.38273437 24.453125 294.39046875 23.65625 294.3984375 C21.5 294 21.5 294 18.5 291 C18.5 285.06 18.5 279.12 18.5 273 C-31 272.67 -80.5 272.34 -131.5 272 C-131.5 293.12 -131.5 314.24 -131.5 336 C-82 336 -32.5 336 18.5 336 C18.5 329.73 18.5 323.46 18.5 317 C21.5 314 21.5 314 23.65625 313.6015625 C24.4296875 313.60929687 25.203125 313.61703125 26 313.625 C26.7734375 313.61726563 27.546875 313.60953125 28.34375 313.6015625 C31.14256948 314.11873567 31.83365626 314.68620689 33.5 317 C33.79674013 319.50486842 33.90921695 321.76216151 33.88768005 324.26777649 C33.89575836 325.38620643 33.89575836 325.38620643 33.90399987 326.52723092 C33.91834093 329.03305023 33.91116073 331.53834583 33.90405273 334.04418945 C33.90975321 335.83783393 33.91671621 337.63147477 33.92485046 339.42510986 C33.9428355 344.30333072 33.94160314 349.18137223 33.93590808 354.05961633 C33.93282306 358.13018222 33.93890122 362.20071332 33.94494683 366.27127427 C33.95900882 375.87513335 33.95741766 385.47890352 33.94604492 395.08276367 C33.93456962 404.99221857 33.9486257 414.90140264 33.9754414 424.81082183 C33.99759424 433.31538371 34.00423648 441.81986056 33.99836498 450.32444924 C33.99499229 455.40518593 33.99743086 460.48574911 34.01461601 465.56646156 C34.03007576 470.34603664 34.02614034 475.12521072 34.00731087 479.9047699 C34.00362189 481.65832632 34.00674245 483.41191237 34.01719666 485.16544151 C34.03038804 487.56118125 34.01887659 489.95558996 34.00120544 492.35127258 C34.01561295 493.39005278 34.01561295 493.39005278 34.03031152 494.44981843 C33.95494812 499.42237796 32.69148007 502.22531326 29.5 506 C24.77930921 509.85735775 21.02167062 510.5752737 15.09472656 510.50336456 C14.25892122 510.50917833 13.42311588 510.51499209 12.56198311 510.52098203 C9.75457149 510.53560786 6.9480306 510.52168475 4.140625 510.50793457 C2.11031649 510.51254246 0.08001131 510.51889461 -1.95028687 510.52684355 C-7.53481189 510.54357532 -13.11906426 510.53527293 -18.70359039 510.52289867 C-24.72412484 510.51386629 -30.74461167 510.52780891 -36.76513672 510.53881836 C-47.87937627 510.55559774 -58.99354062 510.55411455 -70.10778069 510.54317249 C-80.37492303 510.53311391 -90.64203343 510.53048175 -100.90917969 510.53526306 C-101.58997912 510.5355686 -102.27077855 510.53587414 -102.97220826 510.53618894 C-105.73573102 510.53743428 -108.49925377 510.53870787 -111.26277649 510.540028 C-137.19163193 510.55226654 -163.12043187 510.54116613 -189.04927874 510.51964041 C-212.09017389 510.50065769 -235.13098062 510.50235619 -258.171875 510.52148438 C-284.05302284 510.54289862 -309.93412163 510.55139862 -335.8152771 510.53903532 C-338.57379149 510.53775243 -341.3323059 510.53650107 -344.09082031 510.53526306 C-344.77004681 510.53494675 -345.4492733 510.53463044 -346.14908242 510.53430455 C-356.41027412 510.52975288 -366.67143039 510.53507905 -376.93261719 510.54518127 C-388.59897868 510.55660957 -400.26525602 510.553392 -411.9316082 510.5320583 C-417.8867371 510.52152823 -423.8416863 510.51745947 -429.79681396 510.53065491 C-435.2446597 510.54254395 -440.69215857 510.53607374 -446.13997269 510.5147447 C-448.11431153 510.51026384 -450.08867948 510.51257798 -452.06299973 510.52224785 C-454.74066237 510.53436002 -457.4171271 510.52198963 -460.09472656 510.50336456 C-460.86658735 510.51272923 -461.63844814 510.52209389 -462.43369865 510.53174233 C-467.60362843 510.45955473 -470.51070688 509.24853967 -474.5 506 C-478.93180988 500.97957273 -479.07756946 496.830911 -479.02812195 490.44876099 C-479.03647861 489.49372771 -479.04483527 488.53869444 -479.05344516 487.55472076 C-479.07640442 484.35804684 -479.07081057 481.16207401 -479.06518555 477.96533203 C-479.07551809 475.67202991 -479.08750688 473.37873475 -479.10102844 471.08544922 C-479.13209468 464.85813886 -479.1373522 458.63105983 -479.13609672 452.40368128 C-479.13692679 447.20480567 -479.14916675 442.00598036 -479.16104633 436.8071202 C-479.18999445 423.84045443 -479.19294157 410.87394044 -479.18498889 397.90725361 C-479.17900773 386.65463554 -479.20940097 375.40245325 -479.25661161 364.14994384 C-479.30474357 352.58737634 -479.32612652 341.02507274 -479.3213008 329.46239746 C-479.31897744 322.97418496 -479.32732286 316.4864225 -479.36237144 309.99829483 C-479.39430241 303.89623919 -479.39253624 297.79510668 -479.36492729 291.69303894 C-479.3604683 289.45493044 -479.367937 287.21676126 -479.38827133 284.97874069 C-479.41417918 281.91981724 -479.39680183 278.86404274 -479.36869812 275.8052063 C-479.39519024 274.48057662 -479.39519024 274.48057662 -479.42221755 273.12918675 C-479.30105738 267.01847188 -477.48810975 263.95152401 -473.28743201 259.550578 C-468.63782021 255.5170899 -463.33838691 255.71979114 -457.4765625 255.8046875 C-456.73038666 255.8075174 -455.98421082 255.81034729 -455.21542358 255.81326294 C-452.85178012 255.82438313 -450.48852732 255.84947179 -448.125 255.875 C-446.51432842 255.88504038 -444.90365085 255.89416438 -443.29296875 255.90234375 C-439.36183056 255.9242956 -435.43098133 255.95876815 -431.5 256 C-431.21322388 255.08311401 -431.21322388 255.08311401 -430.9206543 254.14770508 C-430.66195557 253.34228271 -430.40325684 252.53686035 -430.13671875 251.70703125 C-429.88365967 250.91014893 -429.63060059 250.1132666 -429.36987305 249.29223633 C-427.24034278 243.68062823 -423.37508405 240.38263204 -418.05099106 237.83143806 C-412.65498764 236.07273232 -406.96717696 236.43711635 -401.34814453 236.46655273 C-399.92477528 236.45948529 -398.50141355 236.45073682 -397.07806396 236.44044495 C-393.2307573 236.41803101 -389.38386358 236.42087208 -385.53651667 236.42976642 C-382.31604434 236.43489426 -379.09564839 236.42756907 -375.87518394 236.42029434 C-368.27267777 236.40332007 -360.67037244 236.40683536 -353.06787109 236.42358398 C-345.24468794 236.44049681 -337.42206313 236.42467704 -329.59894097 236.3923611 C-322.86403011 236.36560219 -316.12929237 236.35840632 -309.39433372 236.36687618 C-305.37989081 236.37178787 -301.36578352 236.36968612 -297.35138321 236.34908867 C-293.57375567 236.33063236 -289.79692608 236.33680978 -286.01934052 236.36128807 C-283.98644736 236.36862298 -281.95351106 236.35151711 -279.92068481 236.33346558 C-271.49561673 236.42009486 -263.93030402 237.50690892 -257.76918221 243.75534725 C-254.33758707 247.92901006 -254.33964373 250.1224939 -253.5 256 C-245.91 256 -238.32 256 -230.5 256 C-230.52094727 254.01226562 -230.54189453 252.02453125 -230.56347656 249.9765625 C-230.6281466 243.38687731 -230.67401553 236.79726759 -230.70724869 230.20735168 C-230.72806593 226.21438771 -230.75627489 222.22176914 -230.80175781 218.22900391 C-230.8454269 214.37103919 -230.86918115 210.51340533 -230.87950897 206.6552124 C-230.88686282 205.18807776 -230.90122288 203.72095991 -230.92292023 202.25396729 C-231.03599684 194.28712543 -231.07876655 187.8046426 -226.5 181 C-221.71439536 176.64945033 -217.50848469 176.79786007 -211.234375 176.90625 C-210.4904248 176.91301758 -209.74647461 176.91978516 -208.97998047 176.92675781 C-207.15324188 176.9443508 -205.32659708 176.97125146 -203.5 177 C-203.53029297 175.74155273 -203.56058594 174.48310547 -203.59179688 173.18652344 C-203.70600854 168.41525654 -203.81705126 163.64391981 -203.92724609 158.87255859 C-203.97491486 156.82664056 -204.02338779 154.78074106 -204.07275391 152.73486328 C-204.21592418 146.78891422 -204.34201767 140.84301235 -204.44580078 134.89624023 C-204.48164327 132.98092762 -204.522895 131.06570781 -204.56982422 129.15063477 C-204.63453749 126.45983806 -204.67896789 123.76939095 -204.71875 121.078125 C-204.74199341 120.2913739 -204.76523682 119.5046228 -204.78918457 118.69403076 C-204.85225053 111.97750594 -203.38800295 106.00265915 -199.79296875 100.28515625 C-196.73034559 97.23296792 -193.38045164 94.86461203 -189.8125 92.4375 C-188.27720788 91.37389401 -186.74205549 90.31008631 -185.20703125 89.24609375 C-184.42408691 88.70710449 -183.64114258 88.16811523 -182.83447266 87.61279297 C-179.20273414 85.10377136 -175.60244649 82.55080583 -172 80 C-170.59125326 79.00635809 -169.18239862 78.01286914 -167.7734375 77.01953125 C-164.85698787 74.96137409 -161.94633465 72.89531734 -159.0390625 70.82421875 C-135.2839425 53.92339444 -135.2839425 53.92339444 -127.25 53.75 C-126.54359375 53.72421875 -125.8371875 53.6984375 -125.109375 53.671875 C-115.64513203 54.86198939 -110.85558436 60.01462456 -104.5 66.6875 C-103.62988281 67.58017578 -102.75976562 68.47285156 -101.86328125 69.39257812 C-99.73035108 71.58410528 -97.61002489 73.78644883 -95.5 76 C-91.16679358 72.31657523 -86.8436429 68.6329419 -82.6875 64.75 C-81.28564453 63.47382813 -81.28564453 63.47382813 -79.85546875 62.171875 C-77.42724037 58.90202186 -77.30015918 58.25943697 -76.97192383 54.48071289 C-75.62739594 47.25060316 -70.68337751 43.08330255 -65.59375 38.13671875 C-64.58784433 37.13304816 -63.58335207 36.12795923 -62.5802002 35.12153625 C-60.48077306 33.0238447 -58.36845345 30.94042409 -56.24511719 28.86694336 C-53.54441166 26.22848058 -50.87324835 23.56235974 -48.21065521 20.88550091 C-46.14054821 18.80893393 -44.05795059 16.74527146 -41.9712677 14.68537331 C-40.98265552 13.70752759 -39.99719546 12.72648298 -39.0151825 11.74201012 C-28.01087453 0.7492454 -15.70755859 -6.95485275 0 0 Z M-20.24804688 17.03930664 C-21.2917041 17.99246262 -21.2917041 17.99246262 -22.35644531 18.96487427 C-25.86595137 22.29685648 -29.30946577 25.6867585 -32.71875 29.12109375 C-33.46209595 29.86585464 -34.20544189 30.61061554 -34.97131348 31.37794495 C-37.31659301 33.72876745 -39.65834836 36.08306431 -42 38.4375 C-43.60132961 40.04385199 -45.20288998 41.64997397 -46.8046875 43.25585938 C-50.70579473 47.16791985 -54.6040242 51.08282952 -58.5 55 C-57.5449028 56.12120157 -56.58882049 57.24156401 -55.63232422 58.36157227 C-55.1000119 58.98556412 -54.56769958 59.60955597 -54.01925659 60.25245667 C-52.29809702 62.23224136 -50.498427 64.10154154 -48.625 65.9375 C-47.58333333 66.95833333 -46.54166667 67.97916667 -45.5 69 C-40.30675495 64.6549583 -35.44742603 60.09447797 -30.66796875 55.30078125 C-29.95014725 54.58391647 -29.23232574 53.8670517 -28.49275208 53.12846375 C-26.98816163 51.62454951 -25.48481602 50.11938893 -23.98266602 48.61303711 C-21.68033045 46.30531367 -19.37266494 44.0030162 -17.06445312 41.70117188 C-15.59863732 40.2346958 -14.13313145 38.76790985 -12.66796875 37.30078125 C-11.97841599 36.61325272 -11.28886322 35.92572418 -10.57841492 35.21736145 C-9.94047501 34.57626938 -9.3025351 33.93517731 -8.64526367 33.2746582 C-8.08457687 32.71317581 -7.52389008 32.15169342 -6.94621277 31.57319641 C-3.8101502 28.16177419 -2.98353389 25.64262544 -3.12890625 21.0078125 C-3.42045002 18.69223221 -3.42045002 18.69223221 -5.5 16 C-8.5785305 13.94764633 -10.68177032 13.14259342 -14.41027832 13.38816833 C-16.97669051 14.13956612 -18.27972297 15.23629443 -20.24804688 17.03930664 Z M-138.8125 76.1875 C-140.60676274 77.49089656 -142.4010337 78.7942818 -144.1953125 80.09765625 C-145.08895508 80.75652832 -145.98259766 81.41540039 -146.90332031 82.09423828 C-150.62622946 84.82656517 -154.40612429 87.4745654 -158.1875 90.125 C-159.56027958 91.09581175 -160.93267542 92.06716637 -162.3046875 93.0390625 C-165.25997972 95.12918627 -168.22493891 97.20480629 -171.1953125 99.2734375 C-171.96786377 99.81339355 -172.74041504 100.35334961 -173.53637695 100.90966797 C-175.01182676 101.9405679 -176.48940445 102.96843167 -177.96948242 103.99267578 C-184.12175686 108.15138079 -184.12175686 108.15138079 -188.5 114 C-188.58837793 116.28885477 -188.6033149 118.58057299 -188.58984375 120.87109375 C-188.58605209 121.60774765 -188.58226044 122.34440155 -188.57835388 123.1033783 C-188.50588536 133.85016919 -188.31906869 144.59634995 -188.12768555 155.34155273 C-188.06208187 159.0863681 -188.00269402 162.83125258 -187.94335938 166.57617188 C-187.90142289 168.97917335 -187.85911844 171.38216844 -187.81640625 173.78515625 C-187.79969376 174.8935939 -187.78298126 176.00203156 -187.76576233 177.14405823 C-187.70941297 180.09828122 -187.6180538 183.04766038 -187.5 186 C-187.47791473 186.79010468 -187.45582947 187.58020935 -187.43307495 188.39425659 C-187.20298889 191.86836096 -186.7048542 193.75072405 -184.47680664 196.46191406 C-180.59584646 198.46716701 -177.14333699 198.60268404 -172.87109375 198.609375 C-171.59512581 198.63451927 -171.59512581 198.63451927 -170.29338074 198.66017151 C-167.50798962 198.70978832 -164.72325476 198.7308861 -161.9375 198.75 C-160.01023794 198.77508806 -158.08299127 198.80138573 -156.15576172 198.82885742 C-152.21144762 198.88100255 -148.26730401 198.91976517 -144.32275391 198.94873047 C-139.68013071 198.98447186 -135.03917375 199.0558784 -130.39729309 199.1446228 C-127.08669308 199.20481589 -123.77605824 199.24673194 -120.46511841 199.28308105 C-118.91333252 199.30258943 -117.36161021 199.32815886 -115.81002808 199.35998535 C-113.6568829 199.40145995 -111.50505552 199.41703654 -109.3515625 199.42578125 C-108.14322754 199.44036377 -106.93489258 199.45494629 -105.68994141 199.4699707 C-101.22253865 198.81179297 -98.97327821 196.75922431 -96.12890625 193.36279297 C-95.77699219 192.82799316 -95.42507813 192.29319336 -95.0625 191.7421875 C-94.6495166 191.12625732 -94.2365332 190.51032715 -93.81103516 189.87573242 C-93.37839355 189.21549072 -92.94575195 188.55524902 -92.5 187.875 C-91.53066312 186.42963464 -90.55922644 184.9856758 -89.5859375 183.54296875 C-89.0815918 182.79450684 -88.57724609 182.04604492 -88.05761719 181.27490234 C-85.48934353 177.52393465 -82.80541898 173.8587369 -80.125 170.1875 C-74.79100817 162.8625049 -69.63330521 155.42891941 -64.54931641 147.9284668 C-64.03288574 147.16703369 -63.51645508 146.40560059 -62.984375 145.62109375 C-62.52772461 144.9448999 -62.07107422 144.26870605 -61.60058594 143.57202148 C-60.5 142 -60.5 142 -59.5 141 C-59.13423205 137.53549925 -59.03904271 135.66215736 -61.06054688 132.75830078 C-61.77275391 132.07751465 -62.48496094 131.39672852 -63.21875 130.6953125 C-63.98574219 129.94765625 -64.75273437 129.2 -65.54296875 128.4296875 C-66.35378906 127.66914063 -67.16460937 126.90859375 -68 126.125 C-68.81082031 125.34125 -69.62164062 124.5575 -70.45703125 123.75 C-72.45853249 121.81913998 -74.47265624 119.90364788 -76.5 118 C-80.11626399 119.51990145 -82.34700197 121.65435245 -85.0546875 124.46484375 C-86.34826172 125.78838867 -86.34826172 125.78838867 -87.66796875 127.13867188 C-89.46692931 128.99863615 -91.26381991 130.86060481 -93.05859375 132.72460938 C-94.35603516 134.05008789 -94.35603516 134.05008789 -95.6796875 135.40234375 C-96.46069824 136.21179443 -97.24170898 137.02124512 -98.04638672 137.85522461 C-103.88789178 142.96145565 -108.94424987 143.48561137 -116.4375 143.28125 C-121.77906615 142.79069801 -124.78798632 140.9920845 -128.25 137.0625 C-131.51216257 132.62233428 -132.81504368 129.81095761 -132.9375 124.25 C-132.99744141 122.77273437 -132.99744141 122.77273437 -133.05859375 121.265625 C-131.43606021 111.78004432 -123.27136791 105.40919163 -116.6875 99 C-115.6978686 98.025449 -114.70893055 97.0501934 -113.72070312 96.07421875 C-111.32050769 93.70914812 -108.91357076 91.35140641 -106.5 89 C-110.2221454 84.59416209 -113.99651071 80.27804492 -118 76.125 C-118.8971875 75.17882812 -119.794375 74.23265625 -120.71875 73.2578125 C-127.99682303 67.34948917 -132.30267124 71.29495389 -138.8125 76.1875 Z M-66.5 71 C-73.18443359 77.54552563 -79.85262135 84.1070468 -86.50053501 90.68966198 C-89.58782507 93.74561479 -92.68045643 96.7957281 -95.78588867 99.83325195 C-98.781597 102.76385545 -101.76248627 105.70879827 -104.73359489 108.66433144 C-105.87071261 109.79034702 -107.01310574 110.91106038 -108.16073799 112.02635765 C-109.76533731 113.58751311 -111.35027606 115.16633711 -112.93188477 116.75073242 C-113.8401149 117.64563889 -114.74834503 118.54054535 -115.68409729 119.46257019 C-117.7971904 121.8561378 -117.7971904 121.8561378 -117.3480072 124.76557922 C-116.69802245 126.93871008 -116.69802245 126.93871008 -115.5 128 C-113.17661615 128.46826535 -113.17661615 128.46826535 -110.5 128 C-107.86598545 126.092695 -107.86598545 126.092695 -105.3425293 123.41015625 C-104.85412064 122.92247772 -104.36571198 122.43479919 -103.86250305 121.93234253 C-102.25426964 120.32063117 -100.6644605 118.69194969 -99.07421875 117.0625 C-97.96144718 115.94040107 -96.84756505 114.81940247 -95.73262024 113.69946289 C-92.80341293 110.75117989 -89.88953082 107.78819111 -86.97857666 104.82189941 C-84.00458547 101.79672861 -81.01636027 98.78569157 -78.02929688 95.7734375 C-72.1721647 89.86270754 -66.3311453 83.9363679 -60.5 78 C-61.89332574 74.63279613 -63.4789286 73.0140476 -66.5 71 Z M-214.5 193 C-214.5 213.79 -214.5 234.58 -214.5 256 C-165 256 -115.5 256 -64.5 256 C-64.5 235.21 -64.5 214.42 -64.5 193 C-76.6049344 191.56018226 -76.6049344 191.56018226 -80.74609375 195.88671875 C-81.93050607 197.72351073 -81.93050607 197.72351073 -82.9375 199.6875 C-87.21667732 206.96434969 -90.94889518 211.67334462 -99.5 214 C-102.72412109 214.24291992 -102.72412109 214.24291992 -106.2734375 214.23046875 C-106.93398636 214.23050903 -107.59453522 214.23054932 -108.27510071 214.23059082 C-110.47526051 214.22716741 -112.67493831 214.20811756 -114.875 214.1875 C-116.43725438 214.17853041 -117.99951032 214.16982962 -119.56176758 214.16137695 C-123.90968236 214.13273649 -128.25722801 214.08521747 -132.60491943 214.03320312 C-135.65145893 213.99826295 -138.69801926 213.96952934 -141.74462891 213.94140625 C-147.15721954 213.88912217 -152.56930993 213.81800659 -157.98150635 213.73452759 C-160.10705588 213.70334865 -162.2326751 213.67658573 -164.3583374 213.65438843 C-167.36820824 213.62094148 -170.37721169 213.56864873 -173.38671875 213.51171875 C-174.7206945 213.50211121 -174.7206945 213.50211121 -176.08161926 213.49230957 C-183.45824414 213.31971686 -190.03100372 211.61102006 -196.5 208 C-197.5625 206.25 -197.5625 206.25 -198.5 204 C-199.015625 203.030625 -199.53125 202.06125 -200.0625 201.0625 C-201.5 198 -201.5 198 -202.5 193 C-206.46 193 -210.42 193 -214.5 193 Z M-48.5 193 C-48.5 213.79 -48.5 234.58 -48.5 256 C-32.81153383 256.85429595 -32.81153383 256.85429595 -17.14453125 257.09765625 C-16.22007202 257.09664917 -15.29561279 257.09564209 -14.34313965 257.09460449 C-10.99957986 257.08950445 -7.65603822 257.07554762 -4.3125 257.0625 C3.215625 257.041875 10.74375 257.02125 18.5 257 C18.5 235.88 18.5 214.76 18.5 193 C-3.61 193 -25.72 193 -48.5 193 Z M-414.32637024 254.83796597 C-415.93582833 257.80287303 -415.93364922 260.14211952 -415.9375 263.5 C-415.95683594 264.6240625 -415.97617187 265.748125 -415.99609375 266.90625 C-415.71972993 270.03698499 -415.71972993 270.03698499 -413.89453125 272.34765625 C-410.79438651 274.48690784 -408.48866187 274.63954987 -404.75 274.9375 C-398.58928839 275.6739676 -394.11524428 276.74514003 -389.5 281 C-385.44688941 286.19629563 -384.45742572 289.90035423 -384.25 296.375 C-383.96589997 301.83976119 -383.96589997 301.83976119 -381.25 306.375 C-378.65571682 308.22256907 -378.65571682 308.22256907 -375.875 308 C-373.30751346 306.91895304 -372.21060602 306.17756812 -370.5 304 C-369.92339127 301.37617721 -369.92339127 301.37617721 -369.6875 298.4375 C-368.55197586 290.92487227 -366.16169668 284.87662892 -360.05859375 280.08203125 C-350.6570618 274.18330554 -340.17267357 273.58937181 -329.35546875 275.578125 C-322.20102304 277.77949291 -317.65731459 281.82133446 -313.5 288 C-309.58758779 295.97071098 -310.33892527 305.05121207 -310.2890625 313.703125 C-310.26818569 315.71157575 -310.24729168 317.7200265 -310.22536278 319.72846603 C-310.17234249 324.66005807 -310.12781585 329.59164533 -310.09863281 334.5234375 C-310.08176247 337.30098547 -310.05711147 340.07825279 -310.02377319 342.85565186 C-309.99273212 345.46755653 -309.97336953 348.0796308 -309.96670532 350.69171143 C-309.95013885 351.87013611 -309.93357239 353.04856079 -309.91650391 354.26269531 C-309.90841705 355.3008136 -309.9003302 356.33893188 -309.89199829 357.4085083 C-309.44489968 360.36426698 -308.85082103 361.22706641 -306.5 363 C-304.65732132 364.08568503 -304.65732132 364.08568503 -302.5 364 C-299.78482063 362.45830092 -299.78482063 362.45830092 -297.5 360 C-296.7547991 357.04505225 -296.7547991 357.04505225 -296.87231445 353.70605469 C-296.85912674 352.43082947 -296.84593903 351.15560425 -296.83235168 349.84173584 C-296.8424377 348.45178058 -296.85275329 347.06182698 -296.86328125 345.671875 C-296.8552361 344.23942515 -296.84471507 342.80698727 -296.83183289 341.37457275 C-296.80327974 337.60293289 -296.80270605 333.83184216 -296.80969238 330.06011963 C-296.81701099 324.03833705 -296.78544952 318.01673348 -296.74724388 311.9950943 C-296.73845711 309.90128166 -296.74367105 307.80786148 -296.75080872 305.71405029 C-296.72361141 296.32690584 -296.57142303 288.6326461 -290.5 281 C-286.04261672 276.77721584 -281.86542956 275.28064419 -275.8125 274.5625 C-272.64560619 274.24404093 -272.64560619 274.24404093 -270.81640625 272.93359375 C-268.80122734 269.97361287 -269.06581856 266.95225069 -269.125 263.5 C-269.10759766 262.48486328 -269.10759766 262.48486328 -269.08984375 261.44921875 C-269.09558311 257.6585331 -269.09558311 257.6585331 -270.6714325 254.30743313 C-273.22690586 252.48025939 -275.02743559 252.61973007 -278.15551758 252.61231995 C-279.33328766 252.60241531 -280.51105774 252.59251068 -281.72451782 252.58230591 C-283.01812225 252.58680756 -284.31172668 252.5913092 -285.64453125 252.59594727 C-287.01940466 252.59024562 -288.39427334 252.58328216 -289.76913452 252.57514954 C-293.50464441 252.5571812 -297.23991989 252.55839318 -300.97546005 252.56409192 C-304.09194672 252.56717812 -307.20838799 252.56109777 -310.3248682 252.55505317 C-317.67527593 252.54099785 -325.02556746 252.54257791 -332.37597656 252.55395508 C-339.9645221 252.56544112 -347.55271443 252.55135499 -355.14121342 252.5245586 C-361.65254491 252.50242495 -368.16376534 252.49575881 -374.6751318 252.50163502 C-378.56586603 252.50501098 -382.45637374 252.50254731 -386.34707642 252.48538399 C-390.00468453 252.46995354 -393.66176793 252.47382616 -397.31935501 252.49268913 C-399.30473893 252.49815144 -401.29014619 252.48383188 -403.27548218 252.46899414 C-404.45325226 252.47882828 -405.63102234 252.48866241 -406.84448242 252.49879456 C-407.87022873 252.49900384 -408.89597504 252.49921312 -409.95280457 252.49942875 C-412.61878154 252.77637534 -412.61878154 252.77637534 -414.32637024 254.83796597 Z M-463.5 273 C-463.5 293.79 -463.5 314.58 -463.5 336 C-417.96 336 -372.42 336 -325.5 336 C-322.898757 313.2974571 -322.898757 313.2974571 -330 292.125 C-334.36237256 288.85322058 -340.34263713 289.60157712 -345.5 290 C-349.39545904 291.25211184 -350.91604941 292.16578487 -353.25 295.5 C-354.35518548 298.59451933 -354.92489334 301.27539743 -355.4375 304.5 C-356.21417449 309.379109 -357.51641647 312.12134141 -360.5 316 C-360.5 316.66 -360.5 317.32 -360.5 318 C-368.11067594 322.12244947 -374.94816287 324.24216986 -383.6015625 322.6015625 C-389.52253443 320.84127355 -393.11318301 317.05200201 -396.5 312 C-398.26734924 307.74229501 -398.58561175 303.85830703 -398.875 299.3125 C-399.15521919 296.12062828 -399.37806518 294.23278466 -400.875 291.375 C-404.42183997 289.51713144 -407.64980384 289.56104095 -411.609375 289.328125 C-417.19011626 288.69463545 -421.7904275 286.66336784 -425.8125 282.75 C-427.21099099 280.47097765 -428.42166775 278.22013527 -429.60546875 275.828125 C-429.9614917 275.11043945 -430.31751465 274.39275391 -430.68432617 273.65332031 C-431.08808472 272.83492676 -431.08808472 272.83492676 -431.5 272 C-435.89656173 271.97534496 -440.2930872 271.95716158 -444.68969727 271.94506836 C-446.18644918 271.94002879 -447.68319616 271.93319713 -449.17993164 271.92456055 C-451.32699807 271.91247841 -453.47399962 271.90676809 -455.62109375 271.90234375 C-456.9145874 271.89710693 -458.20808105 271.89187012 -459.54077148 271.88647461 C-462.38652404 271.66003068 -462.38652404 271.66003068 -463.5 273 Z M-253.5 272 C-255.15 275.3 -256.8 278.6 -258.5 282 C-262.49544984 285.99544984 -266.12296198 288.41424827 -271.70703125 289.3828125 C-272.50496094 289.52460938 -273.30289063 289.66640625 -274.125 289.8125 C-274.88039063 289.92207031 -275.63578125 290.03164063 -276.4140625 290.14453125 C-279.20582233 291.04654256 -279.20582233 291.04654256 -281.5 296 C-281.5 309.2 -281.5 322.4 -281.5 336 C-237.28 336 -193.06 336 -147.5 336 C-147.5 314.88 -147.5 293.76 -147.5 272 C-182.48 272 -217.46 272 -253.5 272 Z M-463.5 352 C-463.5 372.79 -463.5 393.58 -463.5 415 C-441.39 415 -419.28 415 -396.5 415 C-396.5 394.21 -396.5 373.42 -396.5 352 C-418.61 352 -440.72 352 -463.5 352 Z M-380.5 352 C-380.5 372.79 -380.5 393.58 -380.5 415 C-372.91 415.33 -365.32 415.66 -357.5 416 C-354.5 417 -354.5 417 -353.25 418.625 C-352.17150954 422.0402198 -352.67046729 424.55424873 -353.5 428 C-356.6314698 430.08764653 -357.35743461 430.25339344 -360.92289734 430.2784729 C-362.27955505 430.29521812 -362.27955505 430.29521812 -363.66362 430.31230164 C-365.14823479 430.31554192 -365.14823479 430.31554192 -366.6628418 430.31884766 C-367.70691193 430.32889328 -368.75098206 430.3389389 -369.82669067 430.34928894 C-373.28419433 430.38022619 -376.7416202 430.39718548 -380.19921875 430.4140625 C-382.59390436 430.43276565 -384.98858333 430.45233841 -387.383255 430.4727478 C-393.69117317 430.52416501 -399.99911273 430.56373944 -406.30712891 430.60089111 C-412.74191623 430.64087068 -419.17661383 430.69199057 -425.61132812 430.7421875 C-438.24082135 430.83906032 -450.87036596 430.92380689 -463.5 431 C-463.5231271 439.19690561 -463.54091696 447.39379768 -463.55181217 455.59072781 C-463.5570402 459.39651577 -463.56413638 463.20228148 -463.57543945 467.00805664 C-463.5862712 470.67792544 -463.59227744 474.34777278 -463.59487724 478.01765633 C-463.59673097 479.42074992 -463.6003506 480.82384229 -463.60573006 482.2269268 C-463.61294419 484.1856968 -463.61340809 486.1444882 -463.61352539 488.10327148 C-463.615746 489.22023911 -463.61796661 490.33720673 -463.62025452 491.48802185 C-463.78510776 493.93905414 -463.78510776 493.93905414 -462.5 495 C-460.57638373 495.09660952 -458.64916934 495.12187168 -456.72312927 495.12025452 C-455.46804565 495.12162918 -454.21296204 495.12300385 -452.91984558 495.12442017 C-451.51614356 495.12088055 -450.11244178 495.11724574 -448.70874023 495.11352539 C-447.24063112 495.11324353 -445.77252187 495.11340124 -444.30441284 495.1139679 C-440.30665343 495.1142559 -436.30892376 495.10835874 -432.31117129 495.10139394 C-428.13779267 495.09516085 -423.96441344 495.09455664 -419.79103088 495.09336853 C-411.88267208 495.09025508 -403.97432703 495.08204151 -396.0659743 495.07201904 C-387.06491506 495.06085832 -378.06385518 495.05534756 -369.06279075 495.05032361 C-350.54185111 495.03985891 -332.02093033 495.02151326 -313.5 495 C-313.5 473.88 -313.5 452.76 -313.5 431 C-318.45 430.67 -323.4 430.34 -328.5 430 C-331.5 427 -331.5 427 -331.9375 423.5625 C-331.5 420 -331.5 420 -330.05755615 417.8114624 C-326.21827356 415.09218054 -322.74223894 415.42817524 -318.14160156 415.45410156 C-317.19492111 415.44376389 -316.24824066 415.43342621 -315.27287292 415.42277527 C-312.14528452 415.39328898 -309.01834163 415.39184684 -305.890625 415.390625 C-303.72156536 415.37564732 -301.55251714 415.35892105 -299.38348389 415.34051514 C-293.67559289 415.29678334 -287.96785575 415.2768295 -282.25982666 415.26177979 C-275.41063955 415.23879234 -268.56162261 415.18635605 -261.71257019 415.13883972 C-251.30833561 415.06996408 -240.90459006 415.03856408 -230.5 415 C-230.5 394.21 -230.5 373.42 -230.5 352 C-247.33 352 -264.16 352 -281.5 352 C-281.83 355.96 -282.16 359.92 -282.5 364 C-285.83751062 371.6285957 -288.88759564 375.10077467 -296.6875 378.3125 C-303.82975085 379.60044687 -310.12811713 379.25223396 -316.4375 375.4375 C-320.89434663 372.06496668 -322.68036324 369.30727389 -324.5 364 C-324.83 360.04 -325.16 356.08 -325.5 352 C-343.65 352 -361.8 352 -380.5 352 Z M-214.5 352 C-214.5 372.79 -214.5 393.58 -214.5 415 C-165 415 -115.5 415 -64.5 415 C-64.5 394.21 -64.5 373.42 -64.5 352 C-114 352 -163.5 352 -214.5 352 Z M-48.5 352 C-48.5 372.79 -48.5 393.58 -48.5 415 C-26.39 415 -4.28 415 18.5 415 C18.5 394.21 18.5 373.42 18.5 352 C-3.61 352 -25.72 352 -48.5 352 Z M-297.5 431 C-297.5 452.12 -297.5 473.24 -297.5 495 C-248 495 -198.5 495 -147.5 495 C-147.5 473.88 -147.5 452.76 -147.5 431 C-197 431 -246.5 431 -297.5 431 Z M-131.5 431 C-131.5 452.12 -131.5 473.24 -131.5 495 C-112.09008286 495.02254587 -92.68017626 495.0409785 -73.27024937 495.05181217 C-64.25853063 495.05697542 -55.24682058 495.06401866 -46.23510742 495.07543945 C-38.3834045 495.08538541 -30.53170786 495.09185322 -22.67999882 495.09408849 C-18.51996548 495.09539575 -14.35995015 495.09848255 -10.19992256 495.10573006 C-6.28891588 495.11248889 -2.37793473 495.11461724 1.53307724 495.11310768 C2.97267228 495.11338407 4.41226813 495.11539001 5.85185814 495.11920547 C7.80894233 495.12414051 9.76604004 495.12239807 11.72312927 495.12025452 C13.36991244 495.12163721 13.36991244 495.12163721 15.04996395 495.12304783 C17.44630212 495.2772807 17.44630212 495.2772807 18.5 494 C18.5 473.21 18.5 452.42 18.5 431 C-31 431 -80.5 431 -131.5 431 Z " fill="#C9A449" transform="translate(478.5,2)"/>
</svg>
